<svg xmlns="http://www.w3.org/2000/svg" viewBox="0 0 480 300" width="480" height="300">
<path d="M40 170C28 84 110 30 240 30c128 0 210 50 202 140-8 82-96 108-206 108-104 0-182-30-196-108z" fill="#E2EEF2"/>
  <ellipse cx="240" cy="262" rx="190" ry="9" fill="#CADCE2"/>
  <rect x="62" y="186" width="150" height="10" rx="3" fill="#C4935A"/>
  <rect x="72" y="196" width="8" height="64" fill="#C4935A"/><rect x="194" y="196" width="8" height="64" fill="#C4935A"/>
  <rect x="96" y="128" width="88" height="58" rx="4" fill="#3E4A5C"/>
  <rect x="102" y="134" width="76" height="46" rx="2" fill="#CADDE4"/>
  <rect x="108" y="140" width="40" height="5" rx="2" fill="#0D5C7D"/>
  <rect x="108" y="150" width="60" height="3.5" rx="1.5" fill="#FFFFFF"/><rect x="108" y="158" width="52" height="3.5" rx="1.5" fill="#FFFFFF"/><rect x="108" y="166" width="56" height="3.5" rx="1.5" fill="#FFFFFF"/>
  <rect x="134" y="186" width="12" height="4" fill="#5B6878"/>
  
  <g>
    <ellipse cx="56" cy="264" rx="28" ry="4.5" fill="#CADCE2"/>
    <rect x="44" y="220" width="10" height="42" rx="4" fill="#46525C"/>
    <rect x="58" y="220" width="10" height="42" rx="4" fill="#46525C"/>
    <rect x="40" y="257" width="16" height="7" rx="3" fill="#24303A"/>
    <rect x="57" y="257" width="16" height="7" rx="3" fill="#24303A"/>
    <rect x="38" y="174" width="36" height="52" rx="13" fill="#F5B562"/>
    <rect x="30" y="182" width="10" height="32" rx="5" fill="#F5B562"/>
    <rect x="72" y="182" width="10" height="32" rx="5" fill="#F5B562"/>
    <circle cx="56" cy="160" r="14" fill="#8A5A3C"/>
    <path d="M41 162a15 15 0 0 1 30 0c-2 6-4 12-3 18-4-10-16-16-27-18z" fill="#24303A"/>
  </g>
  <!-- the handoff -->
  <path d="M206 120c40-50 90-50 128-10" stroke="#0D5C7D" stroke-width="3.5" fill="none" stroke-dasharray="4 7" stroke-linecap="round"/>
  <path d="M326 98l10 14-16 2" stroke="#0D5C7D" stroke-width="3.5" fill="none" stroke-linecap="round" stroke-linejoin="round"/>
  <g transform="translate(268 70)">
    <rect x="-22" y="-15" width="44" height="30" rx="4" fill="#FFFFFF" stroke="#DAE2E5" stroke-width="2"/>
    <path d="M-22-13l22 16 22-16" stroke="#0D5C7D" stroke-width="2.4" fill="none"/>
  </g>
  
  <g>
    <ellipse cx="372" cy="264" rx="30" ry="4.5" fill="#CADCE2"/>
    <rect x="359" y="222" width="11" height="40" rx="4" fill="#3E4A5C"/>
    <rect x="374" y="222" width="11" height="40" rx="4" fill="#3E4A5C"/>
    <rect x="355" y="257" width="16" height="7" rx="3" fill="#24303A"/>
    <rect x="373" y="257" width="16" height="7" rx="3" fill="#24303A"/>
    <rect x="353" y="178" width="38" height="50" rx="13" fill="#0D5C7D"/>
    <rect x="346" y="188" width="11" height="34" rx="5" fill="#0D5C7D"/>
    <circle cx="352" cy="224" r="5" fill="#B97B52"/>
    <path d="M392 214l22 -10" stroke="#0D5C7D" stroke-width="11" stroke-linecap="round"/><circle cx="417" cy="202" r="5" fill="#B97B52"/>
    <circle cx="372" cy="164" r="14" fill="#B97B52"/>
    <path d="M357 163a15 15 0 0 1 30 0z" fill="#F5B562"/><rect x="372" y="159" width="20" height="5" rx="2" fill="#E0894A"/>
  </g>
  
  <g transform="translate(400 238) scale(0.9)">
    <path d="M10 0V-8a4 4 0 0 1 4-4h12a4 4 0 0 1 4 4V0" stroke="#24303A" stroke-width="3" fill="none"/>
    <rect x="0" y="0" width="40" height="22" rx="3" fill="#E07A5F"/>
    <rect x="0" y="7" width="40" height="3" fill="#C4614A"/>
    <rect x="17" y="5" width="6" height="7" rx="1" fill="#24303A"/>
  </g>
  
  <g>
    <rect x="300" y="196" width="60" height="42" rx="5" fill="#F7FAFB"/>
    <rect x="346.8" y="196" width="13.2" height="42" rx="4" fill="#DCE5E9"/>
    <rect x="348.6" y="204.4" width="9.6" height="2" fill="#BCC9CF"/><rect x="348.6" y="210.7" width="9.6" height="2" fill="#BCC9CF"/><rect x="348.6" y="217" width="9.6" height="2" fill="#BCC9CF"/><rect x="348.6" y="223.3" width="9.6" height="2" fill="#BCC9CF"/><rect x="348.6" y="229.6" width="9.6" height="2" fill="#BCC9CF"/>
    <circle cx="324" cy="217" r="15.12" fill="#DCE5E9"/>
    <circle cx="324" cy="217" r="10.886399999999998" fill="none" stroke="#BCC9CF" stroke-width="2"/>
    <circle cx="324" cy="217" r="6.3504" fill="none" stroke="#BCC9CF" stroke-width="2"/>
    <path d="M308.88 217h30.24M324 201.88v30.24" stroke="#BCC9CF" stroke-width="2"/>
    <circle cx="324" cy="217" r="2.1168" fill="#5B6878"/>
    <rect x="303.6" y="238" width="7.199999999999999" height="5" fill="#5B6878"/>
    <rect x="349.2" y="238" width="7.199999999999999" height="5" fill="#5B6878"/>
  </g>
</svg>
